<svg xmlns="http://www.w3.org/2000/svg" version="1.1" xmlns:xlink="http://www.w3.org/1999/xlink" xmlns:svgjs="http://svgjs.dev/svgjs" width="128" height="128" viewBox="0 0 128 128"><g transform="matrix(0.8046875,0,0,0.8046875,12.41184074821259,12.814873242367177)"><svg viewBox="0 0 98 98" data-background-color="#efefef" preserveAspectRatio="xMidYMid meet" height="127" width="128" xmlns="http://www.w3.org/2000/svg" xmlns:xlink="http://www.w3.org/1999/xlink"><g id="tight-bounds" transform="matrix(1,0,0,1,0.08387967645792571,0.08387967645792571)"><svg viewBox="0 0 97.83224064708413 97.83224064708413" height="97.83224064708413" width="97.83224064708413"><g><svg></svg></g><g><svg viewBox="0 0 97.83224064708413 97.83224064708413" height="97.83224064708413" width="97.83224064708413"><g><path d="M0 48.916c0-27.016 21.9-48.916 48.916-48.916 27.016 0 48.916 21.9 48.916 48.916 0 27.016-21.9 48.916-48.916 48.916-27.016 0-48.916-21.9-48.916-48.916zM48.916 93.244c24.481 0 44.328-19.846 44.328-44.328 0-24.481-19.846-44.328-44.328-44.327-24.481 0-44.328 19.846-44.327 44.327 0 24.481 19.846 44.328 44.327 44.328z" data-fill-palette-color="tertiary" fill="#d94e28" stroke="transparent"></path><ellipse rx="46.959475510600384" ry="46.959475510600384" cx="48.91612032354207" cy="48.91612032354207" fill="#d94e28" stroke="transparent" stroke-width="0" fill-opacity="1" data-fill-palette-color="tertiary"></ellipse></g><g transform="matrix(1,0,0,1,25.00182605129908,23.475393915029336)"><svg viewBox="0 0 47.828588544485974 50.88145281702546" height="50.88145281702546" width="47.828588544485974"><g><svg viewBox="0 0 47.828588544485974 50.88145281702546" height="50.88145281702546" width="47.828588544485974"><g><svg viewBox="0 0 47.828588544485974 50.88145281702546" height="50.88145281702546" width="47.828588544485974"><g id="textblocktransform"><svg viewBox="0 0 47.828588544485974 50.88145281702546" height="50.88145281702546" width="47.828588544485974" id="textblock"><g><svg viewBox="0 0 47.828588544485974 50.88145281702546" height="50.88145281702546" width="47.828588544485974"><g><svg viewBox="0 0 47.828588544485974 50.88145281702546" height="50.88145281702546" width="47.828588544485974"><g><svg xmlns="http://www.w3.org/2000/svg" xmlns:xlink="http://www.w3.org/1999/xlink" version="1.1" x="0" y="0" viewBox="3.23625 0.00025 94.00075 100.00075000000001" enable-background="new 0 0 100 100" xml:space="preserve" width="47.828588544485974" height="50.88145281702546" class="icon-icon-0" data-fill-palette-color="quaternary" id="icon-0"><path fill="#efefef" d="M34.572 0.001C38.748 0 42.925 0 47.104 0.001c0.001 2.089 0.001 4.177 0 6.267-4.179 0-8.356 0-12.533 0C34.569 4.18 34.569 2.09 34.572 0.001z" data-fill-palette-color="quaternary"></path><path fill="#efefef" d="M28.304 6.268c2.089-0.001 4.177-0.001 6.267 0 0 16.668 0.001 33.334 0 50.001-2.089-0.003-4.177-0.003-6.264-0.001-0.003-2.088-0.004-4.176-0.004-6.264C26.214 50 24.126 50 22.039 50c-0.001-2.089-0.001-4.177-0.001-6.266 2.088 0 4.177-0.001 6.267-0.001C28.305 31.245 28.303 18.757 28.304 6.268z" data-fill-palette-color="quaternary"></path><path fill="#efefef" d="M47.104 6.268c2.088-0.001 4.178-0.001 6.267 0.001 0.003 6.221-0.003 12.442 0 18.665 8.356 0.001 16.71-0.001 25.066 0 0.001 2.089 0 4.177 0 6.267-2.089 0-4.177 0-6.265 0-0.004 4.177 0.001 8.356-0.003 12.533-2.089-0.001-4.177-0.001-6.265 0.001-0.002-4.177 0-8.356-0.001-12.535-4.179-0.001-8.356-0.001-12.532 0-0.004 4.177 0.002 8.356-0.002 12.535-2.088-0.004-4.176-0.004-6.264 0.001C47.103 31.246 47.105 18.757 47.104 6.268z" data-fill-palette-color="quaternary"></path><path fill="#efefef" d="M9.505 37.467c4.177-0.001 8.353-0.001 12.532 0 0.001 2.089 0.001 4.177 0 6.267-4.179-0.001-8.356 0-12.533 0C9.503 41.645 9.503 39.557 9.505 37.467z" data-fill-palette-color="quaternary"></path><path fill="#efefef" d="M90.97 37.467c2.089-0.001 4.177-0.001 6.267 0 0 10.444 0 20.888 0 31.332-2.09 0.003-4.178 0.003-6.267 0.002C90.97 58.355 90.97 47.911 90.97 37.467z" data-fill-palette-color="quaternary"></path><path fill="#efefef" d="M3.237 43.734c2.089-0.001 4.177-0.001 6.267 0 0 4.177 0 8.355 0 12.532-2.089 0.003-4.177 0.003-6.267 0C3.236 52.089 3.236 47.911 3.237 43.734z" data-fill-palette-color="quaternary"></path><path fill="#efefef" d="M9.504 56.266c2.088 0.002 4.177 0 6.266 0.003 0.001 2.088 0.001 4.176 0.001 6.266-2.088 0.001-4.177 0.001-6.267-0.002C9.503 60.443 9.503 58.355 9.504 56.266z" data-fill-palette-color="quaternary"></path><path fill="#efefef" d="M84.705 68.802c2.088-0.003 4.176-0.001 6.265-0.001 0 4.132 0 8.265 0 12.399-2.089 0.001-4.179 0-6.267 0C84.702 77.067 84.702 72.934 84.705 68.802z" data-fill-palette-color="quaternary"></path><path fill="#efefef" d="M28.305 81.199c2.088 0.001 4.176 0 6.264 0.002 0.001 2.087 0.001 4.177 0.001 6.266-2.088 0.001-4.177 0-6.265-0.001C28.303 85.376 28.303 83.288 28.305 81.199z" data-fill-palette-color="quaternary"></path><path fill="#efefef" d="M78.437 81.2c2.089 0 4.177-0.001 6.267 0 0 6.267 0 12.532 0 18.799C80.525 100 76.348 100 72.17 100c-0.002-2.089-0.001-4.179 0.002-6.267 2.086-0.001 4.176 0 6.264 0C78.438 89.555 78.437 85.378 78.437 81.2z" data-fill-palette-color="quaternary"></path><path fill="#efefef" d="M65.904 87.466c2.088 0.002 4.176 0.001 6.265 0 0.001 2.089 0 4.179 0.003 6.268-2.092 0.001-4.18 0-6.269 0C65.902 91.645 65.902 89.555 65.904 87.466z" data-fill-palette-color="quaternary"></path><path fill="#efefef" d="M78.437 31.201c4.177 0 8.354-0.001 12.533 0 0 2.089 0 4.177 0 6.267-2.089 0-4.177 0-6.265 0-0.002 2.089-0.003 4.177-0.004 6.267-2.088-0.001-4.176-0.001-6.264 0.001C78.436 39.557 78.436 35.378 78.437 31.201z" data-fill-palette-color="quaternary"></path><path fill="#efefef" d="M47.104 56.268c2.089-0.002 4.178-0.002 6.267 0 0 8.312 0 16.622 0 24.933-2.089 0-4.177 0-6.267 0C47.104 72.889 47.104 64.578 47.104 56.268z" data-fill-palette-color="quaternary"></path><path fill="#efefef" d="M59.637 56.268c2.088-0.002 4.178-0.002 6.267 0 0 8.312 0 16.622 0 24.933-2.089 0-4.179 0-6.267 0C59.637 72.889 59.636 64.578 59.637 56.268z" data-fill-palette-color="quaternary"></path><path fill="#efefef" d="M72.172 56.266c2.088 0.003 4.176 0.002 6.264 0 0.002 8.312 0 16.624 0.001 24.935-2.089 0-4.177 0-6.265-0.001C72.169 72.889 72.169 64.578 72.172 56.266z" data-fill-palette-color="quaternary"></path><path fill="#efefef" d="M15.771 62.534c2.089 0 4.177-0.002 6.266 0 0.002 4.133 0 8.265 0.002 12.396 2.088 0.003 4.176 0.003 6.264 0.004 0.001 2.089 0.001 4.177 0.002 6.265-2.089 0.002-4.177 0.001-6.267 0-0.001-2.044-0.001-4.088-0.002-6.131-2.088-0.001-4.176-0.003-6.266-0.003C15.77 70.889 15.77 66.711 15.771 62.534z" data-fill-palette-color="quaternary"></path><path fill="#efefef" d="M34.57 87.467c2.088-0.001 4.176-0.001 6.266 0.001 0 2.087 0.001 4.177 0.004 6.265 8.354 0.002 16.709 0 25.063 0.001 0.001 2.088 0.001 4.176-0.001 6.267-10.443 0-20.887 0-31.331 0C34.57 95.821 34.569 91.645 34.57 87.467z" data-fill-palette-color="quaternary"></path></svg></g></svg></g></svg></g></svg></g></svg></g><g></g></svg></g></svg></g></svg></g><defs></defs></svg><rect width="97.83224064708413" height="97.83224064708413" fill="none" stroke="none" visibility="hidden"></rect></g></svg></g></svg>