<svg xmlns="http://www.w3.org/2000/svg" version="1.1" xmlns:xlink="http://www.w3.org/1999/xlink" xmlns:svgjs="http://svgjs.dev/svgjs" width="2000" height="619" viewBox="0 0 2000 619"><g transform="matrix(1,0,0,1,0.07150685286978842,0.22513242028782088)"><svg viewBox="0 0 336 104" data-background-color="#efefef" preserveAspectRatio="xMidYMid meet" height="619" width="2000" xmlns="http://www.w3.org/2000/svg" xmlns:xlink="http://www.w3.org/1999/xlink"><g id="tight-bounds" transform="matrix(1,0,0,1,-0.012013151282133094,-0.037825156235754775)"><svg viewBox="0 0 336.02402630256427 104.0747718536585" height="104.0747718536585" width="336.02402630256427"><g><svg viewBox="0 0 336.02402630256427 104.0747718536585" height="104.0747718536585" width="336.02402630256427"><g><svg viewBox="0 0 336.02402630256427 104.0747718536585" height="104.0747718536585" width="336.02402630256427"><g id="textblocktransform"><svg viewBox="0 0 336.02402630256427 104.0747718536585" height="104.0747718536585" width="336.02402630256427" id="textblock"><g><svg viewBox="0 0 336.02402630256427 104.0747718536585" height="104.0747718536585" width="336.02402630256427"><g><svg><g></g><g></g></svg></g><g><svg><g><svg></svg></g><g></g></svg></g><g id="text-0"><svg viewBox="0 0 336.02402630256427 104.0747718536585" height="104.0747718536585" width="336.02402630256427"><g transform="matrix(1,0,0,1,0,0)"><svg width="220.51641099999992" viewBox="2.75 -36.25 98.04 46.279999999999994" height="104.0747718536585" data-palette-color="#d94e28"><path d="M9.75 6.6L9.75 6.6Q9.7 8.05 8.68 9.05 7.65 10.05 6.2 10.03 4.75 10 3.75 8.97 2.75 7.95 2.75 6.5L2.75 6.5Q2.9-2.15 2.9-22.9L2.9-22.9Q2.9-24.35 3.93-25.38 4.95-26.4 6.4-26.4L6.4-26.4Q8.3-26.4 9.35-24.75L9.35-24.75Q14.75-27.75 19.65-25.55L19.65-25.55Q23.95-23.55 25.95-18.45L25.95-18.45Q26.75-16.35 26.93-14.08 27.1-11.8 26.58-9.38 26.05-6.95 24.45-4.8 22.85-2.65 20.3-1.4L20.3-1.4Q16 0.75 12.6-0.25L12.6-0.25Q11.2-0.65 9.85-1.55L9.85-1.55Q9.8 2.3 9.75 6.6L9.75 6.6ZM14.6-6.7L14.6-6.7Q15.35-6.45 17.2-7.35L17.2-7.35Q19.15-8.35 19.8-10.78 20.45-13.2 19.55-15.95L19.55-15.95Q18.45-18.4 16.75-19.2L16.75-19.2Q15-20 13.35-19.35 11.7-18.7 9.9-15.95L9.9-15.95 9.9-10.2Q10.9-8.35 12.15-7.53 13.4-6.7 14.6-6.7L14.6-6.7ZM31.2-3.4L31.2-3.4Q31.05-14 31.35-23.25L31.35-23.25Q31.4-24.7 32.47-25.68 33.55-26.65 35-26.6 36.45-26.55 37.42-25.48 38.4-24.4 38.35-22.95L38.35-22.95Q38.05-13.6 38.2-3.5L38.2-3.5Q38.2-2.05 37.2-1.03 36.2 0 34.75 0.03 33.3 0.05 32.27-0.95 31.25-1.95 31.2-3.4L31.2-3.4ZM37.15-35.15L37.15-35.15Q38.2-34.15 38.2-32.63 38.2-31.1 37.15-30.05 36.1-29 34.6-29 33.1-29 32.05-30.05 31-31.1 31-32.63 31-34.15 32.05-35.2 33.1-36.25 34.6-36.25 36.1-36.25 37.15-35.15L37.15-35.15ZM56.25-1.4L52.2-7.1Q50.3-4.35 48.75-1.65L48.75-1.65Q48-0.4 46.57-0.03 45.15 0.35 43.9-0.4 42.65-1.15 42.27-2.63 41.9-4.1 42.65-5.35L42.65-5.35Q44.9-9.15 47.6-13.3L47.6-13.3 41.95-20.5Q41.05-21.65 41.2-23.15 41.35-24.65 42.47-25.58 43.6-26.5 45.05-26.35 46.5-26.2 47.45-25.05L47.45-25.05 51.9-19.4 55.75-25Q56.6-26.15 58.05-26.35 59.5-26.55 60.65-25.65 61.8-24.75 62-23.25 62.2-21.75 61.3-20.55L61.3-20.55 56.4-13.45 62-5.55Q62.85-4.35 62.6-2.85 62.35-1.35 61.15-0.53 59.95 0.3 58.5 0.05 57.05-0.2 56.25-1.4L56.25-1.4ZM77.39 0.45L77.39 0.45Q73.39 0.45 70.39-1.25 67.39-2.95 65.82-5.8 64.24-8.65 64.24-12.1L64.24-12.1Q64.24-16.45 65.84-19.63 67.44-22.8 70.44-24.65 73.44-26.5 77.24-26.5L77.24-26.5Q81.14-26.5 83.92-24.9 86.69-23.3 88.09-20.58 89.49-17.85 89.49-14.5L89.49-14.5Q89.49-12.8 88.39-11.85 87.29-10.9 85.44-10.75L85.44-10.75Q81.69-10.4 78.79-10.4L78.79-10.4Q76.04-10.4 72.89-10.55L72.89-10.55 71.14-10.6Q71.44-8.15 73.07-6.78 74.69-5.4 77.99-5.5L77.99-5.5Q79.49-5.55 80.39-5.88 81.29-6.2 81.99-6.85L81.99-6.85Q82.39-7.25 82.84-7.7 83.29-8.15 83.84-8.4 84.39-8.65 85.19-8.65L85.19-8.65Q86.49-8.65 87.37-7.78 88.24-6.9 88.24-5.75L88.24-5.75Q88.24-4.15 86.64-2.7 85.04-1.25 82.52-0.4 79.99 0.45 77.39 0.45L77.39 0.45ZM71.24-15.7L71.24-15.7Q74.19-15.3 77.79-15.4L77.79-15.4Q81.24-15.45 82.84-15.85L82.84-15.85Q82.74-18 81.57-19.3 80.39-20.6 77.34-20.55L77.34-20.55Q74.79-20.5 73.19-19.4 71.59-18.3 71.24-15.7L71.24-15.7ZM100.74-2.85L100.74-2.85Q100.69-1.4 99.67-0.4 98.64 0.6 97.19 0.58 95.74 0.55 94.74-0.48 93.74-1.5 93.74-2.95L93.74-2.95Q93.84-2.95 93.79-17.35L93.79-17.35 93.74-32.65Q93.74-34.1 94.77-35.13 95.79-36.15 97.24-36.15 98.69-36.15 99.72-35.13 100.74-34.1 100.74-32.65L100.74-32.65Q100.74-28.65 100.77-22.7 100.79-16.75 100.79-11.93 100.79-7.1 100.74-2.85L100.74-2.85Z" opacity="1" transform="matrix(1,0,0,1,0,0)" fill="#d94e28" class="wordmark-text-0" data-fill-palette-color="primary"></path></svg></g><g><svg xmlns="http://www.w3.org/2000/svg" xmlns:xlink="http://www.w3.org/1999/xlink" version="1.1" x="238.19369392682918" y="7.105427357601002e-15" viewBox="3.23625 0.00025 94.00075 100.00075000000001" enable-background="new 0 0 100 100" xml:space="preserve" width="97.83033237573505" height="104.07477185365849" class="icon-cg-0" data-fill-palette-color="accent" id="cg-0"><path fill="#f64a16" d="M34.572 0.001C38.748 0 42.925 0 47.104 0.001c0.001 2.089 0.001 4.177 0 6.267-4.179 0-8.356 0-12.533 0C34.569 4.18 34.569 2.09 34.572 0.001z" data-fill-palette-color="accent"></path><path fill="#f64a16" d="M28.304 6.268c2.089-0.001 4.177-0.001 6.267 0 0 16.668 0.001 33.334 0 50.001-2.089-0.003-4.177-0.003-6.264-0.001-0.003-2.088-0.004-4.176-0.004-6.264C26.214 50 24.126 50 22.039 50c-0.001-2.089-0.001-4.177-0.001-6.266 2.088 0 4.177-0.001 6.267-0.001C28.305 31.245 28.303 18.757 28.304 6.268z" data-fill-palette-color="accent"></path><path fill="#f64a16" d="M47.104 6.268c2.088-0.001 4.178-0.001 6.267 0.001 0.003 6.221-0.003 12.442 0 18.665 8.356 0.001 16.71-0.001 25.066 0 0.001 2.089 0 4.177 0 6.267-2.089 0-4.177 0-6.265 0-0.004 4.177 0.001 8.356-0.003 12.533-2.089-0.001-4.177-0.001-6.265 0.001-0.002-4.177 0-8.356-0.001-12.535-4.179-0.001-8.356-0.001-12.532 0-0.004 4.177 0.002 8.356-0.002 12.535-2.088-0.004-4.176-0.004-6.264 0.001C47.103 31.246 47.105 18.757 47.104 6.268z" data-fill-palette-color="accent"></path><path fill="#f64a16" d="M9.505 37.467c4.177-0.001 8.353-0.001 12.532 0 0.001 2.089 0.001 4.177 0 6.267-4.179-0.001-8.356 0-12.533 0C9.503 41.645 9.503 39.557 9.505 37.467z" data-fill-palette-color="accent"></path><path fill="#f64a16" d="M90.97 37.467c2.089-0.001 4.177-0.001 6.267 0 0 10.444 0 20.888 0 31.332-2.09 0.003-4.178 0.003-6.267 0.002C90.97 58.355 90.97 47.911 90.97 37.467z" data-fill-palette-color="accent"></path><path fill="#f64a16" d="M3.237 43.734c2.089-0.001 4.177-0.001 6.267 0 0 4.177 0 8.355 0 12.532-2.089 0.003-4.177 0.003-6.267 0C3.236 52.089 3.236 47.911 3.237 43.734z" data-fill-palette-color="accent"></path><path fill="#f64a16" d="M9.504 56.266c2.088 0.002 4.177 0 6.266 0.003 0.001 2.088 0.001 4.176 0.001 6.266-2.088 0.001-4.177 0.001-6.267-0.002C9.503 60.443 9.503 58.355 9.504 56.266z" data-fill-palette-color="accent"></path><path fill="#f64a16" d="M84.705 68.802c2.088-0.003 4.176-0.001 6.265-0.001 0 4.132 0 8.265 0 12.399-2.089 0.001-4.179 0-6.267 0C84.702 77.067 84.702 72.934 84.705 68.802z" data-fill-palette-color="accent"></path><path fill="#f64a16" d="M28.305 81.199c2.088 0.001 4.176 0 6.264 0.002 0.001 2.087 0.001 4.177 0.001 6.266-2.088 0.001-4.177 0-6.265-0.001C28.303 85.376 28.303 83.288 28.305 81.199z" data-fill-palette-color="accent"></path><path fill="#f64a16" d="M78.437 81.2c2.089 0 4.177-0.001 6.267 0 0 6.267 0 12.532 0 18.799C80.525 100 76.348 100 72.17 100c-0.002-2.089-0.001-4.179 0.002-6.267 2.086-0.001 4.176 0 6.264 0C78.438 89.555 78.437 85.378 78.437 81.2z" data-fill-palette-color="accent"></path><path fill="#f64a16" d="M65.904 87.466c2.088 0.002 4.176 0.001 6.265 0 0.001 2.089 0 4.179 0.003 6.268-2.092 0.001-4.18 0-6.269 0C65.902 91.645 65.902 89.555 65.904 87.466z" data-fill-palette-color="accent"></path><path fill="#f64a16" d="M78.437 31.201c4.177 0 8.354-0.001 12.533 0 0 2.089 0 4.177 0 6.267-2.089 0-4.177 0-6.265 0-0.002 2.089-0.003 4.177-0.004 6.267-2.088-0.001-4.176-0.001-6.264 0.001C78.436 39.557 78.436 35.378 78.437 31.201z" data-fill-palette-color="accent"></path><path fill="#f64a16" d="M47.104 56.268c2.089-0.002 4.178-0.002 6.267 0 0 8.312 0 16.622 0 24.933-2.089 0-4.177 0-6.267 0C47.104 72.889 47.104 64.578 47.104 56.268z" data-fill-palette-color="accent"></path><path fill="#f64a16" d="M59.637 56.268c2.088-0.002 4.178-0.002 6.267 0 0 8.312 0 16.622 0 24.933-2.089 0-4.179 0-6.267 0C59.637 72.889 59.636 64.578 59.637 56.268z" data-fill-palette-color="accent"></path><path fill="#f64a16" d="M72.172 56.266c2.088 0.003 4.176 0.002 6.264 0 0.002 8.312 0 16.624 0.001 24.935-2.089 0-4.177 0-6.265-0.001C72.169 72.889 72.169 64.578 72.172 56.266z" data-fill-palette-color="accent"></path><path fill="#f64a16" d="M15.771 62.534c2.089 0 4.177-0.002 6.266 0 0.002 4.133 0 8.265 0.002 12.396 2.088 0.003 4.176 0.003 6.264 0.004 0.001 2.089 0.001 4.177 0.002 6.265-2.089 0.002-4.177 0.001-6.267 0-0.001-2.044-0.001-4.088-0.002-6.131-2.088-0.001-4.176-0.003-6.266-0.003C15.77 70.889 15.77 66.711 15.771 62.534z" data-fill-palette-color="accent"></path><path fill="#f64a16" d="M34.57 87.467c2.088-0.001 4.176-0.001 6.266 0.001 0 2.087 0.001 4.177 0.004 6.265 8.354 0.002 16.709 0 25.063 0.001 0.001 2.088 0.001 4.176-0.001 6.267-10.443 0-20.887 0-31.331 0C34.57 95.821 34.569 91.645 34.57 87.467z" data-fill-palette-color="accent"></path></svg></g></svg></g></svg></g></svg></g></svg></g><g></g></svg></g><defs></defs></svg><rect width="336.02402630256427" height="104.0747718536585" fill="none" stroke="none" visibility="hidden"></rect></g></svg></g></svg>